<?xml version="1.0" standalone="no"?>
<!DOCTYPE svg PUBLIC "-//W3C//DTD SVG 20010904//EN"
 "http://www.w3.org/TR/2001/REC-SVG-20010904/DTD/svg10.dtd">
<svg version="1.0" xmlns="http://www.w3.org/2000/svg"
 width="500.000000pt" height="500.000000pt" viewBox="0 0 500.000000 500.000000"
 preserveAspectRatio="xMidYMid meet">

<g transform="translate(0.000000,500.000000) scale(0.100000,-0.100000)"
fill="#000000" stroke="none">
<path d="M1166 2951 c-12 -13 -16 -29 -12 -52 3 -19 8 -124 11 -234 l5 -200
-26 30 c-14 17 -63 80 -109 140 -105 138 -261 305 -285 305 -9 0 -22 -6 -27
-12 -6 -8 -10 -129 -9 -308 1 -291 1 -296 24 -332 29 -46 43 -48 61 -8 10 25
11 40 1 81 -13 53 -5 409 9 409 12 0 101 -107 300 -360 101 -128 110 -148 117
-272 4 -57 11 -113 15 -126 18 -48 29 -8 29 104 0 69 4 114 10 114 6 0 10 -7
10 -15 0 -8 6 -15 14 -15 10 0 16 17 20 53 13 102 18 127 27 133 5 3 9 13 9
24 0 13 5 17 20 13 14 -4 22 1 28 17 9 25 68 50 118 50 33 0 35 -3 113 -183
11 -27 21 -37 33 -34 22 6 28 -12 28 -84 0 -45 3 -59 15 -59 15 0 19 13 30 90
3 24 10 49 15 55 5 6 14 56 21 111 6 54 12 101 15 103 10 10 123 -60 181 -113
61 -56 67 -59 94 -49 l28 11 3 -66 c2 -52 7 -67 19 -70 14 -2 18 10 23 65 9
93 34 162 56 156 10 -3 20 4 26 17 11 24 72 50 119 50 29 0 32 -5 79 -110 47
-108 65 -127 85 -93 8 16 10 15 15 -7 3 -14 7 -34 8 -45 2 -11 10 -20 18 -20
11 0 16 14 18 49 2 27 10 59 18 70 8 12 14 44 14 76 0 81 22 270 31 265 4 -3
24 -57 44 -120 36 -112 67 -174 92 -182 22 -8 60 41 67 87 13 83 38 180 45
180 13 0 31 -74 56 -221 13 -76 29 -147 35 -158 15 -29 48 -27 60 5 21 54 -58
436 -98 476 -20 20 -34 -4 -29 -48 3 -33 1 -44 -9 -44 -10 0 -14 14 -14 46 0
46 -17 73 -46 74 -7 0 -22 -42 -34 -92 -13 -51 -26 -99 -29 -106 -4 -6 -19 27
-35 75 -50 160 -103 253 -141 253 -34 0 -57 -37 -49 -78 7 -36 -35 -392 -47
-392 -3 0 -12 13 -19 30 -10 25 -10 32 4 45 9 9 16 22 16 29 0 17 -21 36 -41
36 -22 0 -122 202 -124 253 -2 53 -15 63 -65 48 -48 -14 -75 -50 -66 -86 5
-18 -9 -65 -48 -163 -30 -75 -60 -156 -67 -179 l-12 -41 -89 79 c-49 43 -103
87 -119 96 -16 10 -29 20 -29 23 1 10 104 72 125 75 35 3 80 40 114 92 36 53
37 60 15 91 -25 36 -53 27 -124 -41 -36 -35 -89 -81 -119 -102 l-54 -39 6 39
c4 22 10 73 14 112 7 80 -3 103 -42 103 -57 0 -74 -73 -76 -315 -1 -88 -4
-171 -8 -184 -6 -23 -8 -22 -23 17 -14 35 -14 43 -2 53 28 23 10 69 -28 69
-11 0 -23 11 -29 28 -5 15 -28 62 -50 104 -26 51 -39 90 -39 116 0 48 -19 66
-58 57 -47 -10 -72 -40 -72 -85 0 -22 -17 -82 -39 -137 -35 -87 -52 -132 -77
-198 -11 -29 -20 62 -29 285 -7 186 -17 230 -49 230 -7 0 -21 -9 -30 -19z
m335 -353 c8 -16 5 -18 -20 -18 -22 0 -29 4 -26 15 18 56 15 56 46 3z m809 13
c14 -28 13 -31 -16 -31 -20 0 -25 4 -20 16 3 9 6 20 6 25 0 16 19 10 30 -10z"/>
<path d="M3047 2922 c-10 -10 -17 -35 -17 -56 0 -31 3 -36 18 -32 9 2 32 7 50
11 27 6 32 11 32 34 0 30 -27 61 -52 61 -8 0 -22 -8 -31 -18z"/>
<path d="M3360 2905 c-7 -8 -17 -12 -23 -8 -5 3 -7 2 -4 -4 4 -6 -5 -21 -18
-33 -23 -22 -35 -70 -17 -70 4 0 7 -53 7 -118 -1 -111 -3 -123 -30 -177 -16
-31 -40 -64 -53 -73 -20 -13 -24 -13 -40 2 -10 9 -29 37 -43 63 -22 44 -24 58
-22 166 2 85 -1 117 -9 115 -15 -5 -31 -48 -18 -48 17 0 11 -40 -6 -47 -14 -5
-16 -17 -10 -84 4 -53 3 -80 -5 -85 -20 -12 -28 18 -22 88 4 44 2 68 -5 68 -5
0 -8 9 -5 20 3 12 0 20 -7 20 -10 0 -12 -27 -8 -117 6 -133 32 -218 92 -308
l34 -50 6 -178 c7 -194 13 -240 30 -234 7 2 13 72 16 213 l5 210 36 44 c53 66
136 208 151 260 l13 45 7 -45 c4 -25 12 -85 17 -135 5 -49 16 -107 25 -127 20
-46 46 -51 46 -9 0 16 7 35 16 42 14 11 15 29 10 117 l-5 104 62 -58 c76 -70
123 -123 169 -191 34 -49 37 -59 42 -150 10 -148 19 -198 36 -198 13 0 16 31
20 197 3 108 8 200 13 204 4 4 7 -15 7 -42 0 -62 9 -94 25 -94 8 0 15 20 19
53 13 102 18 127 27 133 5 3 9 13 9 24 0 13 5 17 20 13 14 -4 22 1 28 17 9 25
68 50 118 50 33 0 34 -1 112 -182 19 -44 33 -48 56 -13 22 34 20 53 -13 126
-25 56 -27 66 -15 80 26 29 10 69 -28 69 -11 0 -23 11 -29 28 -5 15 -28 62
-50 104 -26 51 -39 90 -39 116 0 48 -19 66 -58 57 -48 -10 -72 -40 -72 -88 -1
-26 -18 -83 -46 -152 -25 -60 -53 -133 -61 -161 l-16 -52 -103 105 -103 105
25 21 c37 32 49 99 27 146 -27 54 -86 82 -189 90 -46 4 -93 3 -104 -1 -14 -5
-20 -3 -20 7 0 21 -16 27 -30 10z m237 -120 c12 -3 25 -15 28 -26 11 -33 -26
-65 -92 -80 -29 -6 -34 -4 -39 16 -3 12 -4 37 -2 56 4 45 34 54 105 34z m494
-187 c8 -16 5 -18 -20 -18 -22 0 -29 4 -26 15 18 56 15 56 46 3z"/>
<path d="M1074 1692 c-7 -4 -15 -54 -19 -114 l-7 -108 30 0 c28 0 31 3 34 38
3 34 6 37 38 42 27 4 36 10 38 28 3 20 -1 22 -37 22 -34 0 -41 3 -41 19 0 15
10 20 45 25 25 4 45 11 45 16 0 5 3 15 6 24 5 14 -4 16 -57 16 -35 0 -69 -4
-75 -8z"/>
<path d="M1236 1686 c3 -8 1 -17 -5 -21 -7 -4 -11 -44 -11 -101 l0 -94 30 0
30 0 0 99 c0 55 3 106 6 115 5 12 -1 16 -25 16 -22 0 -29 -4 -25 -14z"/>
<path d="M1341 1684 c-51 -36 -70 -155 -31 -194 47 -47 130 -6 130 63 0 37
-14 49 -48 40 -23 -5 -37 -44 -21 -54 8 -5 8 -9 0 -13 -23 -14 -33 6 -27 52 6
44 20 72 37 72 5 0 9 -9 9 -20 0 -15 7 -20 25 -20 22 0 25 4 25 35 0 52 -51
72 -99 39z"/>
<path d="M1466 1669 c-3 -17 -6 -62 -6 -99 0 -76 16 -100 66 -100 65 0 94 51
94 168 0 59 -1 62 -25 62 -27 0 -33 -18 -37 -115 -3 -42 -6 -50 -23 -50 -19 0
-20 5 -16 83 3 82 3 82 -22 82 -19 0 -26 -6 -31 -31z"/>
<path d="M1663 1690 c-21 -9 -23 -17 -25 -90 -1 -44 -2 -90 -2 -102 -1 -18 5
-23 24 -23 21 0 26 5 28 33 4 42 18 41 39 -3 19 -40 20 -40 48 -19 19 14 19
16 2 46 -16 28 -16 32 -1 49 20 22 23 82 5 103 -15 18 -81 21 -118 6z m77 -53
c0 -7 -5 -18 -12 -25 -18 -18 -38 -15 -38 6 0 10 3 22 7 25 11 12 43 7 43 -6z"/>
<path d="M1878 1673 c-32 -81 -66 -188 -62 -195 10 -16 56 -8 61 11 3 10 15
21 28 23 18 4 25 0 29 -19 5 -18 13 -23 36 -23 17 0 30 2 30 4 0 19 -33 177
-42 199 -8 21 -17 27 -39 27 -23 0 -32 -6 -41 -27z m42 -83 c0 -11 -4 -20 -9
-20 -5 0 -7 9 -4 20 3 11 7 20 9 20 2 0 4 -9 4 -20z m53 -80 c3 -11 1 -18 -4
-14 -5 3 -9 12 -9 20 0 20 7 17 13 -6z"/>
<path d="M2062 1693 c-20 -8 -44 -62 -37 -84 4 -10 22 -31 41 -45 45 -35 44
-48 -5 -40 -31 5 -40 2 -45 -11 -7 -18 6 -30 42 -39 34 -9 70 4 88 31 22 33
11 70 -26 92 -20 11 -30 25 -30 41 0 13 4 20 10 17 6 -3 10 -13 10 -21 0 -8
10 -14 25 -14 20 0 25 5 25 24 0 44 -49 69 -98 49z"/>
</g>
</svg>
